<svg width="124" height="124" viewBox="0 0 124 124" fill="none" xmlns="http://www.w3.org/2000/svg">
<path d="M54.3333 50.3334H32.3333C28.2832 50.3334 25 53.6166 25 57.6667V94.3334C25 98.3835 28.2832 101.667 32.3333 101.667H54.3333C58.3834 101.667 61.6667 98.3835 61.6667 94.3334V57.6667C61.6667 53.6166 58.3834 50.3334 54.3333 50.3334Z" stroke="#D4AF37" stroke-width="2" stroke-linecap="round" stroke-linejoin="round"/>
<path d="M32.3334 35.6667C32.3334 33.7218 33.106 31.8565 34.4813 30.4813C35.8565 29.106 37.7218 28.3334 39.6667 28.3334H83.6667C85.6116 28.3334 87.4769 29.106 88.8522 30.4813C90.2274 31.8565 91 33.7218 91 35.6667V94.3334C91 96.2783 90.2274 98.1436 88.8522 99.5188C87.4769 100.894 85.6116 101.667 83.6667 101.667H74.8667" stroke="#D4AF37" stroke-width="2" stroke-linecap="round" stroke-linejoin="round"/>
<path d="M43.3334 87H43.37" stroke="#D4AF37" stroke-width="2" stroke-linecap="round" stroke-linejoin="round"/>
<circle cx="62" cy="62" r="60.5" stroke="#D4AF37" stroke-width="3"/>
</svg>
